<?xml version="1.0" standalone="no"?>
<!DOCTYPE svg PUBLIC "-//W3C//DTD SVG 20010904//EN"
 "http://www.w3.org/TR/2001/REC-SVG-20010904/DTD/svg10.dtd">
<svg version="1.0" xmlns="http://www.w3.org/2000/svg"
 width="512.000000pt" height="512.000000pt" viewBox="0 0 512.000000 512.000000"
 preserveAspectRatio="xMidYMid meet">
<metadata>
Created by potrace 1.16, written by Peter Selinger 2001-2019
</metadata>
<g transform="translate(0.000000,512.000000) scale(0.100000,-0.100000)"
fill="#000000" stroke="none">
<path d="M2775 4085 c-21 -9 -50 -25 -63 -38 -44 -40 -52 -75 -52 -239 l0
-152 -67 66 c-154 150 -249 144 -420 -28 -51 -51 -96 -87 -118 -94 -19 -6 -49
-23 -65 -36 -16 -14 -60 -35 -97 -48 -94 -32 -145 -59 -238 -126 -44 -31 -206
-121 -360 -199 -154 -79 -291 -152 -303 -164 -58 -54 -96 -195 -72 -268 12
-37 12 -42 -3 -51 -23 -12 -23 -58 0 -58 9 0 32 -5 50 -12 47 -17 43 -43 -9
-66 -62 -27 -72 -43 -64 -100 5 -41 3 -52 -14 -67 -28 -25 -25 -42 15 -82 19
-19 35 -37 35 -39 0 -2 -11 -4 -24 -4 -35 0 -78 -18 -71 -30 9 -15 37 -12 162
16 63 14 143 29 176 32 50 6 62 11 61 25 -1 9 4 17 11 17 6 0 86 36 176 80
157 77 194 89 194 62 0 -12 -229 -125 -425 -208 -181 -78 -250 -121 -250 -158
0 -17 -28 -35 -136 -91 -146 -75 -174 -101 -174 -162 0 -67 14 -80 300 -268
584 -385 754 -475 1125 -594 300 -96 307 -96 426 -17 38 25 72 46 77 46 4 0
48 -18 97 -40 50 -22 108 -42 130 -46 104 -15 461 61 665 143 266 106 485 235
808 475 145 107 170 140 157 205 -8 43 -37 75 -109 117 l-59 35 2 101 c2 78
-1 107 -14 126 -8 13 -56 44 -105 69 -87 44 -90 46 -90 80 0 33 2 35 33 35 47
0 71 28 61 72 -4 18 -7 41 -5 51 3 24 -26 57 -50 57 -12 0 -24 13 -34 37 -17
40 -43 73 -57 73 -5 0 -6 -9 -3 -20 4 -14 -1 -30 -18 -49 l-24 -29 -6 172 c-4
94 -7 211 -7 260 l0 88 26 -6 c71 -18 -10 31 -323 198 -187 99 -395 208 -461
240 l-120 59 -4 66 c-5 67 -2 91 11 91 4 0 61 -32 127 -71 185 -110 343 -194
440 -232 141 -56 147 -53 27 14 l-112 63 32 28 c87 75 157 83 202 23 22 -28
33 -33 80 -37 99 -8 177 -89 177 -183 0 -24 -3 -49 -6 -54 -4 -5 8 -30 26 -55
57 -82 49 -206 -20 -288 l-27 -32 32 24 c43 31 83 89 94 137 12 50 -5 131 -36
173 -20 27 -23 40 -18 79 6 53 -20 126 -60 170 -30 32 -114 71 -156 71 -23 0
-39 7 -53 25 -61 78 -149 71 -247 -20 l-49 -46 -201 101 c-111 55 -201 104
-201 109 0 9 134 20 259 22 69 1 72 2 36 10 -22 5 -106 12 -187 15 l-147 7 -4
71 c-2 39 -5 93 -5 120 -2 59 -37 110 -95 139 -51 25 -142 31 -192 12z m172
-52 c39 -18 68 -56 76 -99 13 -70 -62 -109 -198 -102 -60 3 -90 9 -101 20 -15
15 -14 17 5 23 26 8 27 17 1 33 -27 17 -26 64 3 97 46 53 136 65 214 28z m48
-193 c-9 -14 -92 -56 -137 -68 -30 -8 -38 -8 -38 3 0 8 21 18 53 25 29 6 69
19 88 29 43 23 41 23 34 11z m-244 -40 c5 0 9 -7 9 -15 0 -8 -5 -15 -10 -15
-7 0 -7 -6 0 -19 15 -28 13 -33 -12 -29 -19 2 -24 10 -26 47 -3 37 -1 43 13
37 9 -3 21 -6 26 -6z m269 -19 c0 -37 -167 -211 -202 -211 -9 0 -5 148 4 155
2 1 35 12 73 24 39 12 81 28 95 36 32 18 30 18 30 -4z m-552 -20 c48 -25 116
-93 158 -158 l34 -52 0 -153 -1 -153 -66 -38 -67 -38 -68 31 c-99 44 -140 51
-202 35 -49 -13 -291 -119 -348 -153 -28 -17 -47 -53 -46 -87 1 -11 1 -46 0
-77 l-2 -58 -200 -100 c-110 -55 -203 -100 -208 -100 -4 0 -13 22 -19 50 -7
27 -30 87 -51 133 -44 94 -78 128 -181 178 l-66 33 60 27 c52 24 73 28 155 28
52 1 121 -5 153 -13 31 -7 57 -11 57 -9 0 14 -101 45 -166 51 l-75 7 98 51 98
52 53 -14 c68 -18 129 -60 181 -125 48 -60 51 -58 15 14 -37 73 -66 108 -113
136 -76 47 -7 58 74 12 28 -16 82 -58 121 -95 40 -36 78 -66 85 -66 19 0 -117
135 -168 168 -24 15 -43 34 -43 42 0 30 49 86 99 113 62 34 176 67 231 67 36
0 43 5 70 43 76 106 110 142 174 188 78 55 113 61 174 30z m289 -155 c1 -41
-2 -78 -6 -81 -4 -2 -5 -25 -1 -50 5 -33 3 -50 -6 -60 -8 -8 -10 -15 -4 -17
14 -4 24 -73 15 -95 -5 -10 -7 -42 -6 -70 2 -41 0 -53 -12 -53 -22 0 -27 52
-27 304 l0 228 23 -14 c19 -14 22 -25 24 -92z m173 -6 c0 -5 -15 -17 -32 -26
l-33 -17 24 27 c25 27 41 33 41 16z m-840 -39 c0 -16 -15 -20 -41 -14 l-24 7
25 7 c36 10 40 10 40 0z m794 -52 c24 -19 26 -26 26 -100 0 -72 -2 -79 -20
-79 -18 0 -20 -5 -14 -38 5 -32 2 -44 -18 -67 -42 -49 -50 -29 -47 124 2 98 7
142 17 159 18 27 23 27 56 1z m137 -168 c-2 -87 1 -146 8 -158 8 -13 10 19 11
130 0 96 4 147 10 147 6 0 24 -7 40 -15 l30 -16 0 -214 c0 -118 -3 -215 -6
-215 -3 0 -39 14 -80 31 l-74 31 0 230 0 230 33 -21 32 -21 -4 -139z m139
-142 c0 -189 -6 -239 -24 -193 -3 9 -6 105 -6 215 0 172 2 198 15 193 13 -5
15 -39 15 -215z m98 -52 l2 -207 -35 17 -35 17 0 209 0 209 33 -19 32 -19 3
-207z m87 161 l45 -22 0 -203 0 -203 -50 25 -50 25 0 200 c0 110 2 200 5 200
2 0 25 -10 50 -22z m115 -63 l30 -16 0 -189 c0 -204 -1 -206 -51 -180 -18 10
-19 23 -19 205 0 107 2 195 5 195 4 0 19 -7 35 -15z m-780 -25 c0 -13 -79 -70
-97 -70 -26 0 -12 16 40 47 62 37 57 35 57 23z m-246 -53 c83 -36 100 -47 89
-58 -5 -5 -56 -26 -113 -47 -93 -34 -105 -42 -108 -64 -3 -22 -10 -27 -54 -36
-33 -6 -63 -6 -87 0 -52 14 -231 79 -231 85 0 6 153 76 270 124 109 45 124 45
234 -4z m474 11 c-3 -32 -6 -34 -80 -58 -52 -16 -78 -30 -81 -42 -10 -36 -27
-18 -27 28 0 41 2 45 21 39 23 -8 68 8 119 42 46 30 52 29 48 -9z m633 22 c18
-10 19 -23 19 -195 0 -159 -2 -185 -15 -185 -9 0 -20 12 -25 26 -10 26 -14
364 -4 364 3 0 14 -5 25 -10z m75 -38 c13 -8 26 -283 15 -322 -4 -14 -15 -26
-24 -28 -16 -3 -17 12 -17 177 0 100 3 181 8 181 4 0 12 -4 18 -8z m-937 -142
c1 -89 -7 -120 -29 -120 -4 0 -13 39 -20 88 -7 48 -17 96 -20 107 -6 16 -1 23
24 37 29 15 31 15 38 0 4 -10 7 -60 7 -112z m1191 -12 l0 -48 -100 -50 -100
-50 0 139 0 139 100 -41 100 -41 0 -48z m-966 55 c-4 -27 -12 -52 -18 -58 -8
-7 -11 -36 -8 -86 l4 -77 -48 -6 c-27 -3 -59 -6 -71 -6 -74 2 -103 6 -107 16
-3 7 13 28 35 47 34 31 40 34 49 19 9 -16 11 -15 25 2 12 16 17 17 30 6 13
-11 15 -3 15 68 l0 81 43 20 c23 11 45 20 49 20 4 1 5 -20 2 -46z m-326 20
c-2 -10 -10 -18 -18 -18 -8 0 -16 8 -18 18 -2 12 3 17 18 17 15 0 20 -5 18
-17z m-88 -24 c0 -5 -24 -21 -54 -34 -64 -28 -84 -33 -88 -21 -2 7 47 30 140
65 1 1 2 -4 2 -10z m70 -55 c6 -14 10 -29 10 -34 0 -14 -58 -41 -195 -94 -117
-45 -135 -46 -134 -11 0 38 31 59 141 100 64 24 124 48 134 54 28 16 33 14 44
-15z m390 -115 c0 -91 -4 -138 -10 -134 -6 4 -10 62 -10 141 0 83 4 134 10
134 6 0 10 -54 10 -141z m-1878 0 c-3 -106 -6 -130 -17 -125 -8 3 -33 10 -55
16 l-42 11 7 57 c10 85 59 165 105 171 3 1 4 -58 2 -130z m108 29 c0 -43 -2
-78 -4 -78 -1 0 -17 5 -35 11 l-31 11 0 78 0 78 35 -11 35 -10 0 -79z m900 26
c60 -21 78 -30 60 -32 -27 -3 -189 50 -228 74 -41 26 -13 34 36 9 26 -12 85
-36 132 -51z m668 51 c-2 -14 -7 -26 -13 -26 -5 0 -11 12 -13 26 -2 18 1 25
13 25 12 0 15 -7 13 -25z m315 -35 c82 -44 505 -240 519 -240 4 0 8 6 8 14 0
8 8 24 18 36 19 23 19 22 25 -76 4 -54 7 -161 7 -236 l0 -137 -142 63 c-79 34
-208 89 -288 121 -80 32 -154 64 -165 72 -11 7 -32 13 -48 13 -22 0 -30 6 -38
29 -12 33 -51 60 -156 111 -75 35 -90 50 -50 50 42 0 99 -22 355 -135 141 -63
260 -111 265 -106 4 4 7 46 5 92 l-3 83 -110 47 c-60 26 -115 48 -122 48 -8 1
-13 -21 -15 -63 l-3 -64 -65 29 c-35 16 -68 35 -72 42 -8 12 -11 247 -4 247 3
0 38 -18 79 -40z m-1832 10 c16 -9 19 -22 19 -80 0 -39 -3 -70 -6 -70 -3 0
-14 5 -25 10 -16 9 -19 22 -19 80 0 39 3 70 6 70 3 0 14 -5 25 -10z m676 -153
c-2 -23 -3 -1 -3 48 0 50 1 68 3 42 2 -26 2 -67 0 -90z m708 29 c10 -61 -18
-40 -32 25 -9 41 -9 57 0 67 12 15 13 12 32 -92z m-1307 67 c49 -70 115 -243
100 -259 -13 -12 -46 17 -51 46 -8 38 -37 41 -37 4 0 -21 -3 -25 -17 -19 -10
4 -30 11 -45 17 -44 16 -50 88 -7 88 17 0 19 8 19 75 0 41 4 75 9 75 5 0 18
-12 29 -27z m700 -81 l3 -81 -33 13 -33 14 -3 81 -3 81 33 -13 33 -13 3 -82z
m194 58 c-2 -16 -8 -30 -13 -30 -5 0 -9 14 -9 30 0 18 5 30 13 30 9 0 12 -10
9 -30z m355 -20 c9 -45 8 -50 -7 -50 -13 0 -19 11 -24 41 -12 74 17 83 31 9z
m1333 -40 c0 -73 -3 -90 -15 -90 -12 0 -15 16 -15 83 0 46 3 87 7 90 18 18 23
0 23 -83z m-1772 53 c43 -6 54 -16 27 -27 -10 -4 -15 -20 -15 -51 0 -25 -2
-45 -6 -45 -3 0 -23 10 -44 23 -38 21 -40 25 -40 71 0 42 2 47 18 41 9 -4 36
-10 60 -12z m382 -33 c0 -22 -4 -40 -9 -40 -5 0 -11 18 -13 40 -2 28 0 40 9
40 8 0 13 -14 13 -40z m1330 -45 c0 -83 0 -85 -30 -100 -16 -8 -32 -15 -36
-15 -3 0 -4 36 -2 80 2 44 1 80 -2 80 -3 -1 -21 -10 -40 -21 -24 -14 -28 -19
-12 -15 21 4 22 2 22 -69 0 -72 -6 -85 -41 -85 -5 0 -9 38 -9 83 l0 84 68 31
c37 18 70 32 75 32 4 0 7 -38 7 -85z m-1380 30 c0 -28 -4 -35 -20 -35 -16 0
-20 7 -20 35 0 28 4 35 20 35 16 0 20 -7 20 -35z m-64 -10 c4 -14 5 -27 3 -28
-2 -2 -21 -10 -42 -20 -57 -26 -69 -63 -66 -215 2 -113 0 -126 -17 -139 -18
-13 -19 -9 -22 145 -1 87 1 175 5 196 8 34 14 40 63 61 70 30 68 30 76 0z
m-176 -239 c0 -140 -4 -257 -9 -260 -5 -3 -11 14 -13 39 -6 85 4 475 13 475 5
0 9 -113 9 -254z m-1054 228 c20 -5 24 -12 24 -45 0 -43 -2 -44 -49 -28 -28
10 -31 15 -31 51 0 33 3 39 16 34 9 -3 27 -9 40 -12z m704 -6 c0 -7 -23 -26
-50 -41 -49 -27 -50 -29 -50 -74 0 -37 4 -46 20 -50 17 -5 13 -10 -25 -34 -25
-16 -45 -34 -45 -42 0 -7 -13 -21 -30 -30 -25 -15 -36 -16 -68 -7 -33 10 -44
9 -94 -13 l-56 -25 -4 56 c-2 32 -2 60 0 65 2 4 39 25 83 47 l79 40 0 -45 c0
-52 10 -56 70 -25 39 20 40 21 40 76 l0 55 63 29 c72 35 67 33 67 18z m768
-27 c82 -28 224 -100 218 -110 -14 -22 -75 -22 -118 0 -23 12 -101 41 -172 65
-103 34 -123 44 -96 45 19 0 46 5 60 9 38 12 46 11 108 -9z m65 12 c-7 -2 -21
-2 -30 0 -10 3 -4 5 12 5 17 0 24 -2 18 -5z m-623 -44 c0 -5 -7 -9 -15 -9 -9
0 -15 9 -15 21 0 18 2 19 15 9 8 -7 15 -16 15 -21z m1213 -38 c5 -5 7 -31 5
-59 l-3 -50 -62 28 -63 29 0 55 0 56 58 -26 c31 -14 61 -29 65 -33z m-2289 23
c14 -13 14 -17 2 -30 -23 -22 -36 -17 -36 16 0 33 11 38 34 14z m690 -71 c-28
-20 -34 -16 -34 25 0 31 5 41 23 49 20 9 22 7 25 -26 3 -25 -2 -39 -14 -48z
m891 43 c122 -40 195 -75 159 -76 -12 0 -38 -11 -58 -25 l-38 -25 -86 34 c-48
19 -120 44 -159 56 -77 23 -88 38 -50 65 31 23 98 15 232 -29z m-615 1 c40
-15 72 -37 118 -84 l62 -63 2 -75 c4 -148 4 -148 -13 -150 -11 -2 -15 3 -12
14 2 9 -7 47 -21 84 -56 148 -160 247 -261 247 -39 0 -44 13 -18 42 19 21 54
18 143 -15z m172 -42 l3 -54 -37 42 c-33 38 -35 43 -20 55 35 27 50 15 54 -43z
m-1003 33 c48 -11 51 -13 51 -42 0 -60 -9 -76 -39 -70 -20 4 -36 -1 -58 -20
-17 -14 -34 -26 -37 -26 -3 0 -6 38 -6 85 0 97 -3 94 89 73z m2781 -128 c0
-127 -8 -167 -24 -124 -3 9 -6 65 -6 125 0 60 -2 109 -5 109 -17 0 -95 -46
-95 -57 0 -17 5 -16 40 2 17 9 30 12 30 7 0 -4 -33 -21 -72 -38 -63 -25 -74
-33 -79 -59 -5 -23 -7 -17 -8 25 l-1 56 98 46 c53 25 103 47 110 47 9 1 12
-33 12 -139z m-560 63 c0 -76 -24 -67 -28 10 -3 48 -1 56 13 51 11 -5 15 -21
15 -61z m-2070 21 c40 -16 40 -17 40 -70 0 -50 -2 -54 -27 -60 -44 -12 -58 6
-61 80 -2 36 -1 66 2 66 3 0 24 -7 46 -16z m1620 -9 c7 -9 11 -17 8 -20 -12
-12 -142 -55 -168 -55 l-29 0 2 -132 c2 -119 0 -133 -15 -136 -16 -3 -18 8
-18 136 0 159 -12 141 120 191 91 35 85 34 100 16z m-377 -65 l117 -43 0 -88
0 -89 -44 33 c-52 40 -164 87 -207 87 -17 0 -39 -5 -50 -10 -18 -10 -19 -7
-19 84 l0 95 43 -13 c23 -7 95 -32 160 -56z m-1128 18 c23 -10 25 -17 25 -69
0 -55 -2 -59 -30 -74 l-30 -16 0 86 c0 47 2 85 5 85 2 0 16 -5 30 -12z m538
-38 c43 -38 107 -144 107 -177 0 -8 15 -20 33 -28 17 -8 25 -14 17 -14 -31 -1
-60 12 -60 27 0 8 -16 48 -35 88 -24 50 -47 82 -73 101 -53 38 -58 43 -45 43
5 0 31 -18 56 -40z m1881 -76 c-31 -39 -40 -45 -63 -39 -40 10 -56 26 -37 37
9 5 16 22 16 37 0 24 7 31 58 53 l57 24 3 -34 c3 -26 -4 -43 -34 -78z m-1945
86 c51 -26 104 -89 131 -156 34 -82 7 -91 -29 -10 -22 50 -83 122 -120 140
-14 7 -44 17 -65 20 -29 6 -36 10 -25 17 23 14 67 10 108 -11z m1061 7 c0 -16
-67 -39 -75 -26 -3 5 9 15 27 23 42 18 48 19 48 3z m-1745 -28 c4 -6 -3 -13
-15 -16 -21 -6 -22 -7 -6 -19 14 -10 15 -16 6 -33 -6 -12 -17 -21 -24 -21 -8
0 -19 -7 -26 -15 -20 -24 -26 -18 -25 32 1 41 5 50 31 65 33 21 50 23 59 7z
m1849 -21 c-4 -6 -10 -5 -15 3 -14 22 -10 33 6 19 8 -7 12 -17 9 -22z m-1974
-58 c0 -8 -11 -3 -28 13 -33 31 -47 34 -57 10 -4 -12 1 -24 15 -35 18 -14 21
-25 17 -50 -13 -74 -20 -98 -27 -98 -8 0 -60 65 -60 75 0 4 10 15 22 25 22 17
22 19 5 37 -26 30 -21 61 13 82 l31 18 34 -32 c19 -17 35 -38 35 -45z m1870
60 c0 -12 -48 -32 -64 -27 -6 2 3 11 19 20 35 19 45 21 45 7z m62 -12 c8 -13
17 -31 21 -40 5 -15 3 -16 -18 -6 -14 6 -25 17 -25 24 0 7 -3 19 -6 28 -9 24
12 19 28 -6z m1059 -38 c20 -17 31 -39 35 -68 7 -42 6 -44 -17 -40 -19 2 -24
8 -22 31 2 36 -14 34 -35 -3 -18 -32 -31 -37 -50 -18 -21 21 -14 73 13 102 14
15 25 35 25 44 1 14 2 14 12 -3 6 -11 24 -31 39 -45z m-2256 40 c17 -6 13 -9
-20 -15 -22 -4 -57 -11 -78 -15 -31 -7 -36 -6 -27 6 7 7 30 17 53 23 53 11 48
11 72 1z m1291 -47 c4 -21 2 -39 -5 -46 -8 -8 -11 -3 -11 19 -1 28 -1 28 -15
10 -15 -19 -15 -19 -15 5 0 13 3 34 6 47 9 31 31 11 40 -35z m-156 18 c0 -10
-25 -21 -48 -21 -12 1 -10 5 8 15 29 17 40 18 40 6z m346 -52 c203 -82 264
-110 264 -120 0 -5 3 -8 8 -8 20 3 35 -4 78 -42 42 -36 48 -39 57 -23 5 9 7
50 3 93 -3 42 -2 81 2 88 7 12 71 -24 179 -102 74 -53 63 -66 -145 -168 l-131
-65 -51 16 c-41 14 -48 19 -34 27 56 34 74 57 74 97 0 44 -16 82 -31 73 -5 -4
-9 -15 -9 -26 0 -23 -41 -27 -59 -5 -7 8 -82 43 -168 78 -127 51 -157 68 -165
88 -6 14 -14 33 -19 43 -5 9 -8 17 -6 17 2 0 71 -27 153 -61z m-1423 34 c2
-10 8 -25 11 -34 5 -12 0 -18 -18 -23 -32 -8 -34 -26 -3 -26 13 0 32 -8 41
-19 15 -16 15 -19 1 -24 -21 -9 -19 -27 4 -27 10 0 22 7 25 16 4 9 9 15 11 12
3 -3 -3 -26 -14 -52 -22 -49 -16 -56 27 -29 l27 17 -25 -27 c-36 -41 -61 -32
-79 28 -11 34 -32 67 -66 103 -43 44 -57 52 -87 52 -70 0 -102 -59 -92 -170 3
-39 2 -49 -5 -35 -5 11 -10 50 -10 86 -1 54 3 72 21 94 41 53 120 69 184 39
35 -17 52 -14 39 5 -3 6 -18 11 -33 12 -24 0 -25 1 -7 9 31 13 42 12 48 -7z
m-536 -21 c0 -21 -8 -33 -29 -45 -35 -20 -48 -21 -48 -4 0 6 -6 24 -14 39 -8
15 -12 29 -8 32 3 3 26 6 52 6 45 0 47 -1 47 -28z m1613 -1 c0 -5 -7 -12 -16
-15 -24 -9 -28 -7 -14 9 14 17 30 20 30 6z m926 -78 c-2 -3 -19 3 -36 13 l-31
19 33 27 33 27 3 -41 c2 -22 1 -42 -2 -45z m-2668 24 c2 -28 0 -37 -13 -37
-24 0 -41 45 -25 65 20 24 35 13 38 -28z m1815 25 c19 -21 13 -32 -15 -32 -13
0 -18 7 -18 25 0 30 11 32 33 7z m-1103 -17 c0 -8 -2 -15 -4 -15 -2 0 -6 7
-10 15 -3 8 -1 15 4 15 6 0 10 -7 10 -15z m1030 6 c0 -12 -30 -22 -43 -14 -7
4 -3 9 9 14 26 10 34 10 34 0z m-1355 -23 c-4 -9 -97 -62 -208 -118 -111 -56
-213 -112 -226 -125 l-24 -23 20 -34 c25 -44 29 -45 417 -185 52 -19 59 -8 7
13 -37 14 -41 20 -41 50 l0 34 58 -26 c31 -14 66 -29 77 -34 11 -4 98 -46 193
-93 160 -79 171 -86 156 -102 -9 -9 -15 -18 -13 -20 2 -2 85 -38 184 -80 192
-81 270 -105 351 -105 110 0 150 13 432 145 68 32 125 55 128 52 3 -3 -61 -39
-143 -81 -81 -42 -200 -103 -263 -136 -147 -77 -164 -77 -314 -11 -117 52
-157 63 -163 45 -4 -13 217 -119 270 -129 20 -4 56 -4 80 -1 45 7 330 154 527
271 140 83 177 102 756 399 96 49 123 80 109 125 -3 12 -3 25 0 31 8 13 242
-106 255 -130 17 -31 -22 -62 -195 -156 -88 -48 -177 -98 -198 -111 -21 -13
-187 -104 -370 -202 -183 -98 -451 -242 -596 -320 -214 -116 -271 -143 -305
-143 -34 -1 -79 20 -271 124 -572 311 -1107 578 -1157 578 -36 0 -70 34 -52
52 16 17 710 -330 1254 -625 239 -130 222 -129 430 -15 85 46 322 174 525 282
404 216 518 279 554 307 74 58 -96 -23 -484 -231 -110 -59 -265 -142 -345
-185 -80 -42 -206 -110 -281 -151 -143 -78 -186 -89 -239 -61 -14 8 -128 69
-255 137 -126 68 -430 224 -675 348 -245 123 -457 236 -472 250 -35 32 -46 97
-25 138 13 24 59 49 274 150 142 66 259 120 261 119 1 -1 0 -9 -3 -17z m866 2
c13 -10 22 -20 19 -20 -13 -3 -168 -5 -166 -2 3 3 109 40 117 41 4 1 17 -8 30
-19z m637 -45 c-22 -22 -285 -125 -317 -125 -33 0 -81 19 -81 32 0 4 10 8 21
8 45 0 269 78 355 123 27 15 29 14 32 -5 2 -11 -2 -26 -10 -33z m901 -15 c16
0 21 -6 21 -25 0 -30 -3 -31 -49 -3 -46 27 -61 46 -61 77 0 24 1 24 34 -12 18
-20 43 -37 55 -37z m-2867 15 c-1 -9 -63 -27 -70 -21 -1 2 1 17 4 35 l7 31 30
-17 c16 -10 30 -22 29 -28z m1804 20 c-11 -8 -25 -15 -30 -15 -6 0 -2 7 8 15
11 8 25 15 30 15 6 0 2 -7 -8 -15z m392 -59 c84 -34 154 -65 157 -68 3 -2
-174 -91 -393 -196 l-397 -192 -78 0 c-76 0 -82 2 -310 99 -128 55 -275 116
-327 136 -106 42 -138 62 -75 49 22 -5 78 -9 125 -9 71 0 96 -5 150 -29 78
-34 76 -32 61 -50 -14 -17 -15 -16 84 -56 119 -48 133 -51 182 -39 40 11 49 9
113 -20 39 -17 77 -31 86 -31 31 0 7 22 -53 49 -57 25 -60 28 -42 40 12 7 32
37 46 67 23 50 27 54 51 47 23 -5 161 -53 227 -79 17 -7 18 -6 7 8 -7 9 -42
27 -78 40 -64 23 -64 23 -42 40 23 17 23 18 -27 19 l-50 2 60 8 c33 5 79 14
102 19 36 8 55 6 120 -15 95 -30 108 -31 66 -4 -18 12 -33 24 -32 27 0 4 18
22 39 40 l39 33 77 -30 c75 -29 106 -29 89 -1 -4 7 -40 28 -80 46 l-72 33 10
41 c6 22 11 40 12 40 0 0 69 -29 153 -64z m-1748 6 c0 -44 -3 -49 -35 -66 -19
-11 -35 -25 -35 -32 0 -18 36 -27 59 -15 11 6 23 11 28 11 4 -1 -3 -7 -16 -14
-25 -14 -24 -14 45 -49 107 -54 195 -87 241 -92 52 -5 172 -55 446 -187 228
-109 275 -122 385 -107 41 6 93 24 153 55 117 58 140 67 136 52 -1 -7 20 -19
47 -28 l49 -16 -31 -13 c-18 -8 -32 -16 -32 -20 0 -3 -4 -12 -8 -19 -7 -10
-23 -7 -75 13 -73 27 -101 19 -35 -11 l41 -18 -49 -22 c-40 -18 -52 -20 -64
-9 -21 18 -64 30 -56 16 12 -19 -101 -64 -169 -69 l-60 -3 30 20 c25 17 27 21
10 21 -11 0 -38 -9 -60 -18 -23 -11 -50 -16 -65 -12 -23 5 -21 7 23 33 26 15
47 32 47 37 0 14 -5 13 -71 -21 l-61 -30 -54 23 c-30 13 -54 25 -54 28 0 3 20
16 45 30 25 14 45 28 45 32 0 15 -36 8 -84 -18 -42 -23 -52 -24 -75 -14 -24
12 -25 13 -7 24 78 47 66 65 -19 30 -33 -14 -70 -23 -82 -21 -40 7 -25 -3 70
-48 241 -113 262 -120 377 -120 98 0 110 2 174 33 81 38 98 36 30 -4 -98 -57
-230 -70 -350 -33 -59 18 -339 140 -352 154 -3 2 1 12 9 21 13 16 11 17 -13
11 -22 -6 -62 10 -205 82 -280 141 -401 181 -471 154 -20 -8 -14 -12 47 -31
61 -20 92 -44 76 -60 -3 -3 -40 6 -83 21 -42 14 -109 35 -148 46 -75 22 -100
40 -90 66 7 19 262 145 293 145 34 0 76 22 61 32 -7 4 -23 8 -36 8 -13 0 -20
4 -17 10 4 6 10 8 15 5 5 -3 24 8 42 24 18 17 34 31 36 31 1 0 2 -21 2 -48z
m165 36 c-47 -25 -57 -65 -29 -124 14 -30 48 -53 60 -41 3 2 -11 20 -31 40
-34 34 -47 79 -26 92 11 6 81 -25 81 -37 0 -4 -9 -8 -20 -8 -13 0 -20 -7 -20
-20 0 -19 10 -24 38 -21 19 3 14 -34 -9 -55 -19 -17 -23 -17 -47 -3 -53 29
-82 138 -46 173 8 9 27 16 42 16 25 -1 26 -1 7 -12z m713 -41 l45 -22 -29 -5
c-18 -4 -40 1 -59 12 -48 29 -92 23 -131 -16 -22 -22 -34 -29 -34 -19 0 20 55
70 83 76 34 8 76 -1 125 -26z m58 10 c9 -28 0 -29 -26 -2 -22 24 -22 24 -1 22
11 -1 24 -10 27 -20z m63 -51 c0 -17 -4 -40 -8 -51 -7 -16 -9 -14 -14 14 -4
19 -7 50 -7 70 1 34 2 35 15 17 8 -11 15 -34 14 -50z m-450 30 c24 -7 40 -15
35 -18 -5 -4 -26 0 -47 7 -34 11 -37 11 -37 -5 0 -12 14 -22 45 -31 25 -7 45
-19 45 -27 0 -15 -25 -10 -72 14 -34 17 -41 29 -33 54 7 24 7 24 64 6z m384
-53 l32 -18 -28 -3 c-28 -3 -57 12 -57 29 0 14 18 11 53 -8z m117 -43 c0 -15
-8 -34 -17 -43 -17 -15 -18 -12 -14 46 3 56 4 60 17 42 8 -10 14 -31 14 -45z
m470 50 c0 -14 -75 -50 -102 -50 -17 1 -9 9 32 30 61 32 70 35 70 20z m-704
-35 c28 -19 54 -75 54 -114 0 -25 -5 -32 -26 -37 -14 -4 -37 -1 -50 5 -23 10
-24 9 -14 -8 13 -26 47 -36 66 -20 12 10 13 9 8 -4 -9 -23 -27 -27 -61 -11
-55 27 -82 132 -47 182 18 26 41 28 70 7z m139 -30 c31 -30 31 -41 1 -47 -19
-4 -25 0 -29 16 -2 12 -8 29 -12 39 -11 25 12 21 40 -8z m1370 15 c-8 -14
-241 -130 -257 -129 -10 0 245 136 260 138 2 1 0 -4 -3 -9z m-1745 -31 c0 -12
-17 -11 -41 1 -30 17 -22 30 11 19 17 -6 30 -15 30 -20z m107 -46 c-2 -16 -4
-3 -4 27 0 30 2 43 4 28 2 -16 2 -40 0 -55z m-277 52 c-7 -8 -17 -15 -22 -15
-6 0 -5 7 2 15 7 8 17 15 22 15 6 0 5 -7 -2 -15z m-975 -163 c1 -153 9 -170
107 -222 35 -18 284 -151 553 -295 270 -144 565 -301 658 -349 92 -48 167 -91
167 -96 0 -14 -92 -69 -127 -76 -34 -6 -205 40 -263 72 -25 13 -25 13 -2 14
12 0 22 4 22 8 0 7 -123 72 -137 72 -13 0 33 -43 62 -58 60 -31 3 -22 -116 18
-152 50 -345 142 -525 250 -164 98 -684 440 -701 461 -23 28 -25 64 -6 88 10
12 79 55 153 95 111 60 136 77 138 97 3 26 10 49 14 49 2 0 3 -58 3 -128z
m1623 106 c-5 -36 -108 -131 -108 -100 0 5 11 14 25 20 14 7 38 32 53 57 30
51 35 54 30 23z m-92 -36 c-9 -8 -26 10 -26 26 1 15 2 15 15 -2 8 -11 13 -21
11 -24z m1002 6 c34 -18 62 -36 62 -40 0 -21 -52 -17 -110 7 -43 18 -66 23
-73 16 -7 -7 3 -16 33 -30 l43 -19 -34 -21 c-40 -24 -49 -26 -49 -8 0 19 -68
49 -94 42 -11 -3 17 15 64 39 47 25 87 45 90 46 3 0 33 -14 68 -32z m-245 -72
c3 -8 31 -22 61 -32 30 -10 53 -22 49 -27 -6 -10 -314 -159 -319 -154 -2 2 46
30 107 62 l110 58 -33 12 c-18 7 -45 17 -59 23 -20 8 -33 7 -54 -4 -15 -8 -32
-14 -39 -13 -10 0 152 87 165 88 4 1 9 -5 12 -13z m900 -5 c-12 -10 -104 -62
-205 -116 -101 -54 -198 -106 -215 -117 -18 -11 -33 -17 -33 -14 0 10 445 264
465 265 6 0 0 -8 -12 -18z m-683 -6 c0 -2 -13 -11 -30 -20 -38 -19 -40 -11 -2
9 31 17 32 18 32 11z m-297 -77 c15 -11 8 -18 -56 -51 l-72 -39 -49 23 -50 22
38 19 c28 14 41 17 49 9 16 -16 48 -13 82 8 37 24 37 24 58 9z m1072 -74 c81
-49 95 -66 95 -114 0 -41 -19 -58 -218 -200 -296 -211 -488 -319 -737 -415
-207 -80 -503 -143 -620 -132 -57 5 -189 62 -180 77 8 13 101 67 330 190 105
56 285 153 400 215 116 62 311 162 435 221 124 60 268 130 320 156 52 26 96
47 97 47 1 1 36 -20 78 -45z m-2365 -422 c271 -144 410 -222 410 -228 0 -7
-156 74 -564 291 -558 297 -576 306 -576 312 0 6 446 -223 730 -375z m1145
358 c-3 -5 -14 -10 -23 -10 -15 0 -15 2 -2 10 20 13 33 13 25 0z m-204 -91
c-18 -11 -35 -18 -38 -15 -5 5 46 35 62 36 6 0 -5 -9 -24 -21z"/>
<path d="M2785 3987 c-11 -9 -14 -16 -8 -20 6 -4 22 2 34 13 18 14 20 19 8 20
-8 0 -23 -6 -34 -13z"/>
<path d="M3010 2876 c0 -25 5 -48 10 -51 6 -4 10 13 10 44 0 28 -4 51 -10 51
-5 0 -10 -20 -10 -44z"/>
<path d="M3458 2620 l-3 -80 56 -25 c31 -14 62 -25 68 -25 7 0 11 27 11 80 l0
80 -56 25 c-31 14 -60 25 -64 25 -5 0 -10 -36 -12 -80z m73 30 c25 -14 28 -86
3 -76 -9 3 -19 6 -24 6 -13 0 -20 30 -14 56 7 27 8 28 35 14z m18 -106 c13
-12 -8 -10 -29 2 l-25 15 25 -7 c14 -3 27 -8 29 -10z"/>
<path d="M2382 2594 c2 -9 23 -24 48 -34 25 -10 69 -27 98 -39 69 -27 73 -3 5
27 -131 56 -155 63 -151 46z"/>
<path d="M2370 2546 c0 -15 218 -108 233 -99 15 9 -30 33 -180 92 -41 16 -53
18 -53 7z"/>
<path d="M3720 2329 c0 -11 100 -58 132 -62 47 -5 24 21 -39 46 -75 29 -93 33
-93 16z"/>
<path d="M1595 1920 c10 -11 25 -20 34 -20 14 0 14 -2 1 -10 -8 -5 -31 -10
-51 -10 -20 0 -42 -6 -48 -14 -10 -11 -3 -17 35 -30 47 -16 47 -16 71 10 18
20 30 24 46 19 44 -14 77 -17 77 -8 0 11 -148 83 -169 83 -10 0 -9 -5 4 -20z"/>
<path d="M1420 1890 c-8 -5 -12 -12 -8 -15 9 -9 48 4 48 16 0 12 -21 11 -40
-1z"/>
<path d="M1790 1835 c0 -6 95 -50 153 -71 63 -23 31 6 -49 42 -67 31 -104 42
-104 29z"/>
<path d="M1685 1801 c-3 -6 -5 -11 -3 -11 2 0 77 -34 167 -75 90 -41 175 -75
188 -75 13 0 46 -12 74 -26 28 -14 56 -23 62 -21 18 6 -161 93 -318 154 -77
31 -145 57 -151 60 -7 2 -15 0 -19 -6z"/>
<path d="M2666 2021 c-7 -10 121 -67 130 -58 5 5 -106 67 -120 67 -3 0 -7 -4
-10 -9z"/>
<path d="M1281 2154 c-64 -27 -67 -36 -19 -51 56 -17 57 -17 51 8 -4 15 1 27
18 40 22 17 23 19 4 18 -11 0 -35 -6 -54 -15z"/>
<path d="M1462 2149 c5 -18 112 -75 251 -134 108 -46 131 -50 111 -17 -14 21
-219 111 -257 111 -16 1 -41 9 -55 19 -47 33 -55 36 -50 21z"/>
<path d="M1820 2031 c0 -13 35 -33 150 -85 141 -65 174 -76 191 -65 10 6 -33
31 -143 84 -146 70 -198 87 -198 66z"/>
<path d="M2347 2183 c-12 -12 -7 -21 14 -26 16 -4 20 -11 17 -25 -7 -27 6 -46
26 -39 22 9 20 39 -5 71 -20 25 -39 33 -52 19z"/>
<path d="M3378 4041 c-15 -5 -40 -18 -57 -30 -24 -18 -44 -21 -120 -21 -54 0
-91 -4 -91 -10 0 -6 42 -10 105 -10 87 0 110 3 137 20 75 46 176 3 202 -85 3
-11 3 -3 1 19 -10 88 -93 143 -177 117z"/>
<path d="M1815 3659 c-139 -70 -339 -189 -331 -196 5 -5 357 179 434 227 80
50 23 33 -103 -31z"/>
<path d="M3967 3626 c-8 -21 16 -39 31 -24 9 9 16 7 28 -11 24 -33 43 -11 20
23 -18 29 -70 36 -79 12z"/>
<path d="M3960 2832 l-23 -18 27 -29 c14 -15 26 -34 26 -41 0 -23 45 -83 63
-84 26 0 55 -34 68 -82 10 -36 13 -40 19 -23 18 46 -14 126 -57 144 -31 13
-63 61 -63 95 0 13 -8 30 -19 40 -17 15 -20 15 -41 -2z"/>
</g>
</svg>